# xmcd
#
# Track frame offsets: 
#        150
#        11510
#        24960
#        43347
#        59860
#        76597
#        91422
#        106775
#        119472
#        132385
#        145235
#        158210
#        171080
#        181697
#        197955
#        208892
#        220972
#        233372
#        251960
#        266197
#        278510
#        293392
#
# Disc length: 4077 seconds
#
# Revision: 1
# Processed by: cddbd v1.5.1PL2 Copyright (c) Steve Scherf et al.
# Submitted via: ExactAudioCopy v0.95b4
#
DISCID=3d0feb16
DTITLE=Janie Fricke - Anthology
DYEAR=1999
DGENRE=Country
TTITLE0=Down To My Last Broken Heart
TTITLE1=He's A Heartache (Looking For A Place To Happen)
TTITLE2=Tell Me A Lie
TTITLE3=It Ain't Easy Bein' Easy
TTITLE4=Always Have Always Will
TTITLE5=Let's Stop Talkin' About It
TTITLE6=You Don't Know Love
TTITLE7=If The Fall Don't Get You
TTITLE8=I'll Need Someone To Hold Me (When I Cry)
TTITLE9=What're You Doing Tonight
TTITLE10=Your Heart's Not In It
TTITLE11=Do Me With Love
TTITLE12=Pride
TTITLE13=The First Word In Memory Is Me
TTITLE14=Don't Worry 'Bout Me Baby
TTITLE15=I'll Love Away Your Troubles For Awhile
TTITLE16=She's Single Again
TTITLE17=When A Woman Cries
TTITLE18=Somebody Else's Fire
TTITLE19=Easy To Please
TTITLE20=Please Help Me, I'm Falling (In Love With You)
TTITLE21=Baby It's You
EXTD=
EXTT0=
EXTT1=
EXTT2=
EXTT3=
EXTT4=
EXTT5=
EXTT6=
EXTT7=
EXTT8=
EXTT9=
EXTT10=
EXTT11=
EXTT12=
EXTT13=
EXTT14=
EXTT15=
EXTT16=
EXTT17=
EXTT18=
EXTT19=
EXTT20=
EXTT21=
PLAYORDER=
